<mxfile host="app.diagrams.net" modified="2024-04-27T01:29:26.779Z" agent="Mozilla/5.0 (Windows NT 10.0; Win64; x64) AppleWebKit/537.36 (KHTML, like Gecko) Chrome/124.0.0.0 Safari/537.36" version="24.3.1" etag="qb4lc4awQxk02chDVL2n" type="github">
  <diagram name="페이지-1" id="39ceR5SjpVw7d4PdW8FL">
    <mxGraphModel>
      <root>
        <mxCell id="0" />
        <mxCell id="1" parent="0" />
      </root>
    </mxGraphModel>
  </diagram>
</mxfile>
